# xmcd
#
# Track frame offsets: 
#        150
#        30297
#        53672
#        68652
#        88785
#        106085
#        128827
#        152837
#        183275
#        212505
#        230785
#        248655
#        273440
#        299140
#
# Disc length: 4263 seconds
#
# Revision: 20
# Processed by: cddbd v1.5.2PL0 Copyright (c) Steve Scherf et al.
# Submitted via: ExactAudioCopy v1.0b3
#
DISCID=c010a50e
DTITLE=Wham! - The Final (Deluxe Edition)
DYEAR=2011
DGENRE=Pop
TTITLE0=Wham Rap! (Enjoy What You Do?)
TTITLE1=Young Guns (Go For It!)
TTITLE2=Bad Boys
TTITLE3=Club Tropicana
TTITLE4=Wake Me Up Before You Go Go
TTITLE5=Careless Whisper
TTITLE6=Freedom
TTITLE7=Last Christmas (Pudding Mix)
TTITLE8=Everything She Wants
TTITLE9=I'm Your Man
TTITLE10=A Different Corner
TTITLE11=Battlestations
TTITLE12=Where Did Your Heart Go?
TTITLE13=The Edge Of Heaven
EXTD=
EXTT0=
EXTT1=
EXTT2=
EXTT3=
EXTT4=
EXTT5=
EXTT6=
EXTT7=
EXTT8=
EXTT9=
EXTT10=
EXTT11=
EXTT12=
EXTT13=
PLAYORDER=
